<svg xmlns="http://www.w3.org/2000/svg" xmlns:xlink="http://www.w3.org/1999/xlink" version="1.1" x="0px" y="0px" viewBox="0 0 100 125" enable-background="new 0 0 100 100" xml:space="preserve"  ><path d="M50,23.587c-16.27,0-22.799,12.574-22.799,21.417c0,12.917,10.117,22.451,12.436,32.471h20.726  c2.32-10.02,12.436-19.554,12.436-32.471C72.799,36.161,66.271,23.587,50,23.587z"/><path d="M39.637,87.161c0,3.001,1.18,4.181,4.181,4.181h0.374h0.052l0.41,1.231C45.278,94.449,46.042,95,48.019,95h3.963  c1.978,0,2.74-0.551,3.365-2.427l0.409-1.231h0.052h0.375c3.002,0,4.18-1.18,4.18-4.181V80.91H39.637V87.161z"/><path d="M50,18.265c1.26,0,2.072-0.814,2.072-2.073v-9.12C52.072,5.813,51.26,5,50,5c-1.259,0-2.072,0.813-2.072,2.073v9.12  C47.928,17.452,48.741,18.265,50,18.265z"/><path d="M68.313,23.727c0.994,0.774,2.135,0.634,2.91-0.357l5.614-7.187c0.776-0.992,0.636-2.135-0.356-2.909  c-0.992-0.776-2.135-0.636-2.91,0.357l-5.613,7.186C67.18,21.81,67.322,22.952,68.313,23.727z"/><path d="M91.157,36.373c-0.306-1.222-1.291-1.815-2.513-1.51l-8.85,2.207c-1.222,0.305-1.814,1.29-1.51,2.512  c0.305,1.223,1.291,1.814,2.513,1.51l8.849-2.206C90.869,38.581,91.462,37.595,91.157,36.373z"/><path d="M86.757,60.48l-8.331-3.709c-1.15-0.512-2.225-0.099-2.736,1.052c-0.512,1.151-0.1,2.224,1.051,2.737l8.33,3.707  c1.15,0.514,2.225,0.101,2.736-1.05C88.32,62.068,87.907,60.994,86.757,60.48z"/><path d="M28.779,23.37c0.775,0.992,1.917,1.131,2.909,0.357c0.992-0.776,1.132-1.917,0.357-2.91l-5.615-7.186  c-0.775-0.992-1.917-1.132-2.909-0.357s-1.131,1.917-0.356,2.909L28.779,23.37z"/><path d="M21.715,39.583c0.305-1.223-0.288-2.208-1.51-2.513l-8.849-2.207c-1.222-0.303-2.208,0.289-2.513,1.511  c-0.303,1.222,0.288,2.207,1.511,2.512l8.848,2.206C20.424,41.396,21.41,40.805,21.715,39.583z"/><path d="M21.575,56.771l-8.331,3.711c-1.151,0.511-1.563,1.586-1.05,2.735c0.511,1.151,1.586,1.563,2.736,1.052l8.331-3.711  c1.151-0.511,1.563-1.586,1.05-2.735C23.799,56.673,22.726,56.261,21.575,56.771z"/></svg>